<svg version="1.1" xmlns="http://www.w3.org/2000/svg" width="24px" height="24px" viewBox="0 0 448.661 448.661"><path d="M440.212,213.385l-68.793-32.627c-2.876-1.364-5.292-2.027-7.388-2.027c-2.9,0-5.273,1.317-6.51,3.614c-2.463,4.575,1.112,9.996,2.287,11.777l8.382,12.708H127.227c-0.503-0.48-1.031-0.918-1.586-1.293l-31.645-21.381c-3.084-2.084-8.219-3.656-11.942-3.656H8.06c-3.16,0-5.758,1.382-7.126,3.792c-1.369,2.41-1.226,5.349,0.393,8.064l18.033,30.241c0.464,0.778,0.464,2.689,0,3.467L1.325,256.305c-1.618,2.714-1.761,5.653-0.392,8.063c1.369,2.41,3.966,3.792,7.126,3.792h73.995c3.723,0,8.857-1.572,11.942-3.656l31.644-21.381c0.555-0.375,1.083-0.813,1.586-1.293h240.965l-8.382,12.708c-1.175,1.782-4.75,7.203-2.287,11.777c1.236,2.297,3.609,3.614,6.51,3.614c2.096,0,4.512-0.663,7.388-2.027l68.793-32.627c7.351-3.486,8.448-8.354,8.448-10.945S447.563,216.871,440.212,213.385z"/></svg>