<svg xmlns="http://www.w3.org/2000/svg" viewBox="0 0 79.5 88.17"><path d="M87.79,90.3,27,94.08A2.11,2.11,0,0,1,24.79,92V17.83a2.11,2.11,0,0,1,2-2.11l60.78-3.78a2.1,2.1,0,0,1,2.22,2.11V88.19A2.1,2.1,0,0,1,87.79,90.3Z" transform="translate(-10.25 -5.92)" fill="#f9a5bf"/><path d="M82.55,80.57l-49.64,3a1.39,1.39,0,0,1-1.48-1.37V23.27a1.37,1.37,0,0,1,1.31-1.36l49.64-3a1.38,1.38,0,0,1,1.47,1.37V79.21A1.37,1.37,0,0,1,82.55,80.57Z" transform="translate(-10.25 -5.92)" fill="#fff"/><path d="M21.42,92.49l-10.18-5a1.71,1.71,0,0,1-1-1.53V12a1.61,1.61,0,0,1,2.37-1.39l10.19,5a1.72,1.72,0,0,1,1,1.53v74A1.62,1.62,0,0,1,21.42,92.49Z" transform="translate(-10.25 -5.92)" fill="#ed7e9e"/><path d="M81,7.84,17.64,12.1h-.06l-4.13-1.9c-.17,0-.14-.17,0-.18L74.94,5.92H75l6,1.74C81.17,7.69,81.14,7.83,81,7.84Z" transform="translate(-10.25 -5.92)" fill="#ed7e9e"/><path d="M72.17,47.5a57.41,57.41,0,0,0,.11-8.76c-.28-2.58-4.88-.56-8.6.85a17.22,17.22,0,0,0-5.56-.39,16.26,16.26,0,0,0-5.91,1.46c-4.06-.92-9.19-2.28-9.26.46a55,55,0,0,0,.95,9.14A8.82,8.82,0,0,0,43,54.37c.29,6.32,7.65,10.55,16.16,9.48,8.2-1,14.42-6.63,14.17-12.53A9.35,9.35,0,0,0,72.17,47.5Z" transform="translate(-10.25 -5.92)" fill="#f9a5bf"/></svg>