<svg xmlns="http://www.w3.org/2000/svg" viewBox="0 0 81.91 95.07">
  <path
    d="M67.44,81.51,10.72,92.17c-.76.17-1.37-.36-1.34-.78V15.82c-.06-1.13.61-1.43,1.37-1.59L67.44,2.83A1.11,1.11,0,0,1,68.8,4V79.75A1.85,1.85,0,0,1,67.44,81.51Z"
    transform="translate(-9.35 -2.8)"
    fill="#ffa4c5"
  />
  <polygon points="66.58 4.8 9.45 16.3 0.56 13.11 57.51 1.83 66.58 4.8" fill="#fff" />
  <polygon points="66.85 83.55 10.38 93.94 9.45 16.3 66.58 4.8 66.85 83.55" fill="#f7e4eb" />
  <path
    d="M19.19,96.74,11.3,93.11a2.67,2.67,0,0,1-2-2.11l0-75.18c0-.82.88-1.19,1.95-.83l8.4,3.11c1.07.36,1.4.86,1.4,1.67V95.91a.84.84,0,0,1-.18.56,1.3,1.3,0,0,1-1.22.39A2.62,2.62,0,0,1,19.19,96.74Z"
    transform="translate(-9.35 -2.8)"
    fill="#ffa4c5"
  />
  <path
    d="M89.74,93.23,23.87,97.87a1.37,1.37,0,0,1-1.52-1.35V20.68a1.63,1.63,0,0,1,1.52-1.57l65.87-4.64a1.37,1.37,0,0,1,1.52,1.36V91.66A1.63,1.63,0,0,1,89.74,93.23Z"
    transform="translate(-9.35 -2.8)"
    fill="#ffa4c5"
  />
  <path
    d="M84.31,86l-55,3.92A1.15,1.15,0,0,1,28,88.72V24.38a1.37,1.37,0,0,1,1.27-1.33l55-3.93a1.15,1.15,0,0,1,1.27,1.15V84.62A1.37,1.37,0,0,1,84.31,86Z"
    transform="translate(-9.35 -2.8)"
    fill="#fff"
  />
  <path
    d="M71.23,52.8a55.26,55.26,0,0,0,.25-8.17c-.22-2.41-4.43-.59-7.83.67a15.22,15.22,0,0,0-5-.45,14.2,14.2,0,0,0-5.38,1.28c-3.68-.92-8.31-2.26-8.42.3A54.19,54.19,0,0,0,45.51,55a8.43,8.43,0,0,0-.84,3.84c.15,5.9,6.77,9.94,14.52,9.07,7.46-.84,13.2-6,13.07-11.49A9,9,0,0,0,71.23,52.8Z"
    transform="translate(-9.35 -2.8)"
    fill="#ffa4c5"
  />
</svg>