<?xml version="1.0" standalone="no"?>
<!DOCTYPE svg PUBLIC "-//W3C//DTD SVG 20010904//EN"
 "http://www.w3.org/TR/2001/REC-SVG-20010904/DTD/svg10.dtd">
<svg version="1.0" xmlns="http://www.w3.org/2000/svg"
 width="760.000000pt" height="760.000000pt" viewBox="0 0 760.000000 760.000000"
 preserveAspectRatio="xMidYMid meet">
<metadata>
Created by potrace 1.14, written by Peter Selinger 2001-2017
</metadata>
<g transform="translate(0.000000,760.000000) scale(0.100000,-0.100000)"
fill="#000000" stroke="none">
<path d="M4880 7545 c-140 -29 -660 -134 -1155 -233 -2698 -542 -3100 -624
-3130 -636 -18 -8 -40 -24 -49 -37 -15 -22 -16 -271 -16 -3087 l0 -3063 48
-48 c27 -27 65 -54 86 -61 21 -7 174 -75 339 -152 166 -76 320 -144 342 -150
34 -9 46 -8 80 10 22 11 61 23 86 27 l45 7 12 -41 c19 -63 50 -81 141 -81 41
0 299 16 571 35 272 20 655 46 850 60 195 14 416 29 490 35 74 6 266 19 425
30 623 43 725 50 855 60 74 6 234 17 355 25 205 14 296 20 630 45 72 5 236 17
365 26 799 54 776 51 814 114 15 26 16 274 16 3103 l0 3074 -24 26 c-13 14
-37 29 -53 33 -23 6 -426 -18 -938 -57 -60 -4 -131 -8 -157 -8 l-48 -1 0 303
c0 167 -2 306 -5 309 -3 3 -81 -10 -173 -29 -92 -18 -270 -54 -397 -78 -215
-42 -1058 -211 -2970 -597 -440 -88 -816 -164 -835 -167 -26 -5 -44 -2 -70 15
-19 11 -162 68 -318 124 -155 57 -279 107 -275 110 5 4 82 21 173 39 91 17
424 83 740 146 582 115 818 162 2325 460 462 91 893 177 958 190 l118 23 71
-24 c40 -13 75 -24 80 -24 4 0 8 31 8 69 0 60 -3 74 -26 100 -23 28 -31 31
-77 30 -29 -1 -167 -25 -307 -54z m1707 -1279 l28 -24 3 -2599 c2 -2458 1
-2600 -15 -2633 -14 -26 -28 -38 -58 -47 -22 -6 -182 -21 -355 -33 -173 -11
-369 -25 -435 -30 -66 -5 -187 -14 -270 -20 -82 -6 -211 -15 -285 -20 -74 -6
-297 -21 -495 -35 -198 -14 -418 -30 -490 -35 -71 -6 -292 -21 -490 -35 -345
-24 -461 -32 -770 -55 -77 -6 -268 -19 -425 -30 -157 -11 -322 -23 -367 -27
-78 -6 -82 -5 -107 20 l-26 26 0 2611 0 2612 28 28 c35 35 40 36 327 55 127 8
293 20 370 25 206 15 738 53 1535 110 388 27 766 54 840 60 74 6 293 21 485
35 431 30 622 44 745 54 174 15 196 14 227 -13z"/>
<path d="M5281 4345 c-74 -16 -187 -53 -315 -102 l-88 -33 -77 14 c-236 44
-504 22 -701 -58 l-58 -24 -138 34 c-206 51 -347 69 -417 54 -70 -14 -104 -40
-117 -90 -13 -47 2 -376 25 -560 9 -69 17 -132 17 -140 0 -8 -12 -51 -27 -95
-40 -114 -46 -251 -16 -360 105 -383 536 -629 1054 -601 545 28 1013 345 1123
758 33 126 14 311 -44 424 -15 30 -17 47 -9 117 5 45 9 197 10 337 2 229 0
259 -15 283 -10 14 -27 31 -38 37 -33 18 -102 20 -169 5z"/>
</g>
</svg>
