<?xml version="1.0" standalone="no"?>
<!DOCTYPE svg PUBLIC "-//W3C//DTD SVG 20010904//EN"
 "http://www.w3.org/TR/2001/REC-SVG-20010904/DTD/svg10.dtd">
<svg version="1.0" xmlns="http://www.w3.org/2000/svg"
 width="760.000000pt" height="760.000000pt" viewBox="0 0 760.000000 760.000000"
 preserveAspectRatio="xMidYMid meet">
<metadata>
Created by potrace 1.14, written by Peter Selinger 2001-2017
</metadata>
<g transform="translate(0.000000,760.000000) scale(0.100000,-0.100000)"
fill="#000000" stroke="none">
<path d="M5000 7563 c-138 -29 -3050 -615 -4090 -823 -311 -62 -343 -73 -367
-121 -10 -19 -13 -672 -13 -3070 l0 -3045 37 -44 c25 -29 59 -53 103 -73 36
-16 198 -90 360 -164 162 -75 311 -138 331 -140 28 -4 47 0 73 17 l36 22 0
3078 c0 1781 -4 3089 -9 3102 -13 35 -77 65 -389 179 -155 57 -282 106 -282
109 0 3 294 63 652 134 728 144 2379 471 3170 628 l517 102 69 -22 c37 -12 71
-22 75 -22 9 0 9 123 1 145 -8 20 -56 45 -86 44 -13 -1 -97 -17 -188 -36z"/>
<path d="M6385 6629 c-302 -21 -667 -45 -810 -54 -143 -9 -312 -20 -375 -25
-133 -10 -274 -20 -775 -55 -198 -14 -421 -29 -495 -35 -74 -6 -268 -19 -430
-31 -162 -11 -353 -24 -425 -29 -71 -6 -265 -19 -430 -30 -165 -11 -354 -25
-420 -30 -66 -5 -199 -14 -295 -20 -242 -16 -287 -24 -322 -57 -16 -15 -33
-43 -39 -63 -7 -23 -9 -1025 -7 -3070 3 -3320 -2 -3068 60 -3113 30 -22 -229
-38 2203 133 622 44 1585 112 2140 151 1105 77 1060 71 1097 139 17 33 18 141
18 3088 0 2752 -2 3056 -16 3083 -16 32 -68 60 -106 58 -13 -1 -270 -19 -573
-40z m185 -344 c16 -8 34 -24 40 -34 7 -14 10 -858 10 -2626 l0 -2607 -32 -32
c-29 -29 -42 -34 -103 -39 -38 -4 -770 -57 -1625 -117 -855 -61 -1825 -130
-2155 -154 -656 -47 -647 -48 -674 10 -8 18 -11 700 -11 2618 l0 2593 23 34
c12 19 34 37 47 42 14 5 1015 79 2225 166 1210 87 2206 159 2213 160 7 0 26
-6 42 -14z"/>
<path d="M5275 4339 c-52 -12 -208 -64 -315 -104 -85 -32 -86 -33 -150 -18
-36 8 -130 17 -210 20 -178 6 -308 -12 -457 -63 l-104 -35 -152 35 c-320 74
-432 75 -491 5 -24 -29 -26 -37 -26 -137 0 -129 15 -334 36 -495 l15 -118 -26
-70 c-137 -382 89 -760 544 -909 150 -49 270 -63 465 -57 240 8 396 46 594
146 229 115 392 269 485 456 57 114 72 176 71 300 0 99 -3 119 -33 200 -38
102 -37 75 -26 470 9 319 6 343 -49 369 -37 17 -108 19 -171 5z"/>
</g>
</svg>
