<svg width="1150" height="1100" xmlns="http://www.w3.org/2000/svg" preserveAspectRatio="xMidYMid meet">

 <g>
  <title>background</title>
  <rect fill="none" id="canvas_background" height="1102" width="1152" y="-1" x="-1"/>
 </g>
 <g>
  <title>Layer 1</title>
  <path fill="#ff8fcd" id="svg_2" d="m85.263084,91.997909c-2.9,3.4 -5.7,9.8 -7.5,17.3c-1.5,6.2 -1.8,11.1 -1.6,27.7l0.2,20.1l-10.2,-3.4c-11.2,-3.8 -14.8,-4.2 -16.8,-1.8c-1.5,1.8 -2,11.4 -0.8,16.4c0.4,1.9 1.5,10 2.4,18c5.6,49.500001 12.8,75.700001 30.6,111.300002c7.6,15.3 21.4,39.600001 23.4,41.200001c0.7,0.6 7.8,14.1 15.8,30c36.400001,72.800001 56.600001,102.600002 99.500001,146.600002l16.3,16.8l-5,20.3c-13.7,55.600001 -16,74.600001 -16.8,137.000002l-0.5,42.800001l-5.5,8.2c-7,10.8 -15.5,25.9 -20.3,36.100001c-9.6,21 -13.2,39.200001 -14.6,74.300001l-0.7,15.9l2.7,3.2c6.7,8 19.9,10.5 31.7,5.9c3.7,-1.4 6.9,-2.2 7.3,-1.9c0.3,0.3 0.8,-0.2 1.2,-1.1c0.3,-0.9 1.5,-1.6 2.5,-1.6c1,0 6.2,-1.1 11.5,-2.5c10.2,-2.7 19.8,-7.1 25.2,-11.8l3.4,-2.8l6.2,13.3c3.5,7.3 7.9,16 9.9,19.3l3.5,6l-22.1,0.6c-23.1,0.6 -24.5,0.8 -49.200001,4c-16.9,2.3 -17.2,2.3 -31,4.4c-35.400001,5.3 -38.500001,5.9 -43.500001,8.5c-4.5,2.3 -4.2,0.7 -4.2,20.5c0,13.9 -1.3,21.6 -6.6,39.700001c-3.3,11.2 -3,13.2 2.8,15.9c3.3,1.6 5.5,1.5 36.800001,-1.2c38.900001,-3.2 86.500001,-6.5 117.700002,-7.9c26.4,-1.3 115.500002,-0.6 134.500002,0.9c7.4,0.6 21.8,1.8 32,2.6c22.1,1.9 53.200001,5.3 92.000001,10.1c15.7,1.9 29.2,3.6 30,3.6c0.8,0 10.7,-0.9 22,-2.1c11.3,-1.1 23,-2.3 26,-2.6c3,-0.3 15,-1.4 26.5,-2.4c95.000001,-8.8 152.700002,-10.1 228.500003,-5.1c20.4,1.4 76.800001,6.5 99.300001,9.1c15,1.7 18.1,1.8 20.5,0.7c3,-1.5 2.8,1.4 1.5,-25.3c-0.5,-10.3 -0.2,-14 2.1,-26.4c2.4,-13.2 2.5,-14.6 1.1,-16.7c-0.8,-1.3 -2.4,-2.4 -3.4,-2.4c-1,0 -7.2,-1.3 -13.7,-2.9c-46.700001,-11.5 -79.800001,-16.6 -129.900002,-20.1c-8.8,-0.7 -18.3,-1.5 -21.1,-1.8l-5.2,-0.7l8,-9.5c11.1,-13.1 20.6,-27.8 29.5,-45.500001c4.2,-8.2 7.7,-15.2 7.9,-15.4c0.2,-0.2 3.1,1.9 6.6,4.6c15.2,12 25.5,17.6 39.800001,21.8c5.2,1.5 16.3,6.1 24.5,10c17.3,8.4 23,10.5 28.6,10.5c7.3,0 11.9,-4.1 14.8,-13c1,-3.2 0.6,-4.7 -4.3,-17.5c-16.8,-43.500001 -31.6,-71.300001 -58.600001,-110.300002c-12.7,-18.3 -12.8,-18.4 -13.4,-33.2c-0.2,-6.3 -0.7,-12.2 -0.9,-13c-0.3,-0.8 -1.1,-9.4 -1.7,-19c-1,-15.8 -1.8,-26.3 -3.6,-44.500001c-0.3,-3.3 -1.2,-11.2 -2,-17.5c-0.9,-6.3 -1.8,-14.4 -2.1,-18c-0.3,-3.6 -0.9,-7 -1.3,-7.5c-0.4,-0.6 -1.3,-3.9 -2,-7.5c-1.6,-8.1 -7.3,-26.1 -11.4,-36.000001c-3,-7.2 -3.1,-7.6 -1.6,-10.7c0.8,-1.8 5,-6.8 9.3,-11.1c4.2,-4.3 7.7,-8.6 7.7,-9.4c0,-0.9 2.5,-4.1 5.5,-7.2c3,-3 5.5,-5.9 5.5,-6.3c0.1,-1.5 19.6,-24.3 39.700001,-46.500001c15.5,-17.1 50.300001,-52.400001 65.800001,-66.900001c15.4,-14.3 52.600001,-46.900001 73.900001,-64.900001c29.3,-24.8 38.100001,-32 38.700001,-32c1,0 11.9,-18 11.9,-19.7c0,-0.8 0.5,-2.3 1,-3.4c2.3,-4.2 -1.6,-6.9 -12.4,-8.9c-3.3,-0.5 -6.1,-1.2 -6.3,-1.3c-0.2,-0.2 1.7,-2.2 4.3,-4.3c7.2,-6.1 14.2,-13.4 14.7,-15.4c0.7,-2.7 -1.8,-5.6 -5.1,-6.3c-5.2,-1 -66.100001,-6.7 -82.200001,-7.6c-21.9,-1.3 -69.500001,-0.5 -87.000001,1.4c-57.100001,6.2 -103.900002,20.8 -176.300003,55.100001c-29.5,14 -105.300002,53.900001 -109.000002,57.300001c-1.6,1.6 -2.4,1.6 -8,0.5c-39.900001,-8.2 -65.800001,-11.3 -95.700001,-11.4c-28.7,-0.2 -54.200001,2.2 -111.000002,10.4l-23.5,3.4l-11,-7c-19.4,-12.5 -24.1,-15.6 -65.800001,-42.700001c-42.300001,-27.5 -99.400001,-65.900001 -135.000002,-90.800001c-23,-16.1 -77.300001,-55.700001 -110.700002,-80.800001c-11.8,-8.9 -22.5,-16.7 -23.7,-17.3c-3.1,-1.7 -6.8,-1.5 -8.5,0.5z"/>
 </g>
</svg>