<svg version="1.0" xmlns="http://www.w3.org/2000/svg" width="1250pt" height="1250pt" viewBox="0 0 1250 1250" preserveAspectRatio="xMidYMid meet"><g transform="translate(0,1250) scale(0.1,-0.1)" fill="#000000" stroke="none"><path d="M1466 11467 c-12 -12 -35 -63 -52 -112 -29 -89 -29 -93 -29 -313 0 -122 -3 -222 -6 -222 -3 0 -45 14 -95 30 -111 38 -139 43 -164 30 -27 -14 -26 -57 5 -319 75 -633 155 -886 437 -1383 49 -87 93 -160 98 -163 5 -3 77 -140 160 -303 336 -666 529 -963 867 -1334 67 -73 162 -173 210 -221 l89 -88 -28 -107 c-15 -58 -30 -118 -33 -132 -2 -14 -20 -92 -40 -175 -92 -397 -125 -746 -125 -1311 l1 -272 -54 -84 c-88 -135 -172 -287 -215 -388 -86 -200 -116 -357 -132 -677 -12 -229 -12 -227 79 -277 74 -40 149 -43 249 -10 42 13 79 29 83 35 3 6 48 19 100 30 52 10 105 22 119 25 36 8 115 53 159 91 22 18 43 33 48 33 4 -1 51 -88 104 -195 l95 -195 -120 0 c-243 0 -509 -28 -1009 -105 -317 -50 -366 -65 -368 -113 -1 -15 -1 -31 0 -36 1 -4 2 -63 2 -130 0 -129 -17 -231 -67 -394 -14 -46 -24 -93 -22 -105 2 -11 18 -30 37 -41 32 -18 41 -19 180 -7 654 53 1024 78 1506 101 235 11 852 6 1105 -10 392 -24 789 -63 1335 -130 l320 -39 290 29 c383 39 801 75 1115 97 316 22 1223 25 1505 5 285 -20 634 -50 978 -85 332 -34 358 -34 365 6 2 10 1 26 -3 35 -26 63 -23 294 5 449 23 132 23 172 0 183 -8 4 -40 13 -70 18 -30 6 -145 31 -255 56 -395 89 -617 122 -1098 161 -104 8 -210 15 -236 15 -26 0 -50 3 -54 6 -3 4 31 52 77 108 45 55 91 115 102 131 10 17 22 32 26 35 15 11 119 197 178 318 l63 128 105 -79 c58 -43 112 -81 121 -85 9 -3 28 -13 42 -23 34 -24 162 -73 229 -89 30 -7 116 -43 190 -80 226 -113 317 -136 386 -100 22 12 72 90 58 90 -5 0 -3 5 4 12 23 23 11 67 -73 279 -162 404 -292 642 -582 1059 -40 57 -73 112 -73 121 0 9 -6 19 -14 22 -10 4 -15 39 -19 149 -3 79 -12 233 -21 343 -57 729 -100 974 -223 1275 -22 52 -31 86 -24 88 6 2 11 11 11 19 0 16 110 149 142 171 10 7 18 18 18 24 0 10 36 57 101 133 10 11 77 90 150 175 246 287 363 414 634 686 342 342 679 644 1293 1158 116 98 150 133 187 191 24 39 50 92 56 118 17 63 1 81 -89 97 -101 18 -99 16 -66 52 16 17 42 39 58 48 42 26 106 108 106 136 0 13 -9 28 -20 34 -11 6 -102 19 -202 30 -1488 156 -2153 45 -3398 -567 -295 -144 -916 -471 -965 -508 l-30 -22 -175 33 c-659 125 -991 124 -1865 -2 -132 -19 -258 -37 -280 -40 -37 -5 -49 0 -175 82 -1523 985 -1990 1306 -3030 2083 -152 113 -286 212 -298 219 -32 18 -60 15 -86 -11z m289 -264 c482 -362 971 -716 1385 -1002 100 -69 982 -655 1132 -752 73 -48 178 -116 233 -151 534 -347 473 -320 650 -293 1024 156 1381 159 2087 19 l126 -25 154 80 c84 43 230 120 323 170 213 115 581 301 594 301 12 0 170 73 322 150 209 105 627 262 734 275 30 4 58 11 61 16 3 5 21 9 40 9 19 0 33 4 30 9 -6 10 43 25 52 16 3 -3 -3 -5 -14 -6 -10 0 -14 -3 -7 -5 7 -3 27 1 45 9 18 8 60 22 93 30 33 9 84 22 113 31 77 22 295 53 457 66 178 13 611 13 780 0 188 -14 509 -40 585 -47 36 -3 71 -9 78 -13 9 -4 -11 -28 -65 -76 -43 -39 -90 -78 -105 -87 -31 -19 -37 -57 -14 -76 8 -6 31 -14 52 -16 82 -10 179 -28 188 -36 19 -17 -61 -118 -159 -200 -188 -156 -290 -243 -535 -455 -135 -117 -254 -220 -265 -231 -12 -10 -68 -61 -125 -113 -440 -399 -844 -829 -1284 -1365 -72 -88 -155 -184 -184 -213 -36 -38 -52 -60 -49 -75 1 -12 24 -72 49 -133 126 -296 176 -593 229 -1368 17 -251 18 -313 8 -332 -16 -31 -11 -43 95 -192 302 -429 455 -703 600 -1077 36 -93 72 -182 80 -196 12 -23 11 -29 -6 -52 -11 -15 -28 -27 -38 -27 -35 0 -111 31 -262 106 -83 41 -157 74 -166 74 -10 0 -29 6 -44 14 -15 8 -42 17 -60 21 -65 13 -195 85 -308 170 -63 48 -124 97 -137 111 -12 13 -25 24 -28 24 -27 0 -55 -40 -115 -163 -111 -226 -175 -340 -232 -412 -4 -5 -29 -37 -54 -70 -26 -33 -70 -85 -99 -115 -74 -78 -115 -135 -115 -157 0 -29 46 -45 126 -44 39 1 95 -4 125 -10 30 -6 92 -10 138 -10 46 0 127 -4 180 -10 53 -6 119 -12 146 -13 168 -9 658 -97 1033 -187 59 -14 58 -11 37 -121 -24 -126 -29 -254 -12 -331 10 -50 11 -70 3 -73 -6 -2 -168 11 -360 31 -192 19 -365 35 -385 35 -20 0 -42 5 -47 10 -6 6 -77 13 -165 15 -85 2 -188 7 -229 10 -495 37 -996 34 -1660 -8 -118 -8 -228 -14 -245 -15 -59 0 -552 -43 -670 -58 -292 -37 -433 -37 -685 -4 -320 43 -948 107 -1120 115 -63 2 -205 10 -315 16 -338 20 -997 17 -1385 -7 -334 -20 -755 -51 -1080 -79 -85 -7 -158 -11 -163 -8 -4 2 -4 9 -1 15 14 22 64 236 74 313 5 44 9 117 7 162 -1 45 1 84 5 88 4 4 41 11 83 16 41 4 79 10 83 13 19 11 482 78 692 100 195 21 422 28 550 18 59 -5 113 -5 123 0 29 15 19 55 -37 141 -53 81 -136 241 -192 367 -36 83 -73 130 -101 130 -13 0 -52 -27 -95 -65 -87 -77 -173 -117 -263 -120 -40 -1 -72 -9 -95 -23 -49 -29 -165 -72 -196 -72 -14 0 -43 10 -64 23 l-40 22 0 97 c0 334 57 595 182 830 51 95 172 293 199 323 16 18 18 57 23 425 5 406 13 547 42 780 20 158 80 454 139 682 25 97 45 184 45 195 0 10 -68 88 -151 173 -151 155 -331 358 -426 480 -172 221 -363 545 -609 1035 -75 149 -144 279 -154 290 -25 28 -160 266 -226 398 -142 281 -212 510 -263 847 -21 139 -51 394 -51 435 l0 24 118 -40 c116 -39 155 -43 165 -14 4 8 2 61 -3 117 -12 133 -12 338 -1 409 13 78 38 134 54 122 6 -5 102 -77 212 -160z"/></g></svg>