<svg width="64" height="64" xmlns="http://www.w3.org/2000/svg">

 <g>
  <title>background</title>
  <rect fill="none" id="canvas_background" height="402" width="582" y="-1" x="-1"/>
 </g>
 <g>
  <title>Layer 1</title>
  <path id="svg_4" fill="#241F20" d="m48.425,38.798c-1.872,-7.057 -7.345,-10.222 -11.231,-15.046c-3.888,-4.824 -4.895,-6.195 -3.815,-9.9c-5.111,4.212 -5.974,7.45 -4.751,12.562c1.224,5.113 -0.144,5.688 -1.943,6.12c-1.801,0.432 -2.665,-1.438 -2.449,-3.167c-2.807,1.8 -11.517,6.335 -8.709,16.269c2.087,5.399 6.982,8.927 12.812,10.007c1.458,0.204 3.179,0.241 4.721,0.217c-0.675,-0.017 -1.349,-0.06 -1.957,-0.144c-3.979,-0.738 -7.321,-3.146 -8.744,-6.83c-1.915,-6.776 4.03,-9.871 5.942,-11.098c-0.145,1.178 0.442,2.453 1.671,2.162c1.228,-0.295 2.161,-0.688 1.327,-4.176c-0.835,-3.488 -0.248,-5.698 3.242,-8.571c-0.739,2.525 -0.051,3.464 2.602,6.751c2.654,3.293 6.386,5.455 7.662,10.268c1.849,6.938 -2.992,9.845 -5.806,10.927c3.861,-1.278 12.348,-5.391 9.426,-16.351z"/>
 </g>
</svg>