<svg width="32" height="32" xmlns="http://www.w3.org/2000/svg">

 <g>
  <title>background</title>
  <rect fill="none" id="canvas_background" height="402" width="582" y="-1" x="-1"/>
 </g>
 <g>
  <title>Layer 1</title>
  <path id="svg_2" fill="#FFB841" d="m30.63,16.77l-4.29,3.51l0.55,5.52c0.03,0.3 -0.07,0.59 -0.28,0.81c-0.22,0.21 -0.51,0.31 -0.81,0.28l-5.52,-0.55l-3.51,4.29c-0.19,0.23 -0.47,0.37 -0.77,0.37s-0.58,-0.14 -0.77,-0.37l-3.51,-4.29l-5.52,0.55c-0.3,0.03 -0.59,-0.07 -0.81,-0.28c-0.21,-0.22 -0.31,-0.51 -0.28,-0.81l0.55,-5.52l-4.29,-3.51c-0.23,-0.19 -0.37,-0.47 -0.37,-0.77s0.14,-0.58 0.37,-0.77l4.29,-3.51l-0.55,-5.52c-0.03,-0.3 0.07,-0.59 0.28,-0.81c0.22,-0.21 0.51,-0.32 0.81,-0.28l5.52,0.55l3.51,-4.29c0.37,-0.47 1.17,-0.47 1.54,0l3.51,4.29l5.52,-0.55c0.3,-0.04 0.59,0.07 0.81,0.28c0.21,0.22 0.31,0.51 0.28,0.81l-0.55,5.52l4.29,3.51c0.23,0.19 0.37,0.47 0.37,0.77s-0.14,0.58 -0.37,0.77z"/>
 </g>
</svg>