<?xml version="1.0" ?><!DOCTYPE svg  PUBLIC '-//W3C//DTD SVG 1.1//EN'  'http://www.w3.org/Graphics/SVG/1.1/DTD/svg11.dtd'><svg enable-background="new 0 0 32 32" version="1.1" viewBox="0 0 32 32" xml:space="preserve" xmlns="http://www.w3.org/2000/svg" xmlns:xlink="http://www.w3.org/1999/xlink"><g id="Energy20"/><g id="Energy19"/><g id="Energy18"/><g id="Energy17"/><g id="Energy16"/><g id="Energy15"/><g id="Energy14"/><g id="Energy13"/><g id="Energy12"/><g id="Energy11"><g><path d="M28,19c0,6.62-5.38,12-12,12S4,25.62,4,19C4,12.58,14.83,1.75,15.3,1.29c0.39-0.39,1.01-0.39,1.4,0    C17.17,1.75,28,12.58,28,19z" fill="#34B0C0"/></g><g><path d="M14,26c-3.3086,0-6-2.6914-6-6c0-0.5527,0.4478-1,1-1s1,0.4473,1,1c0,2.2061,1.7944,4,4,4    c0.5522,0,1,0.4473,1,1S14.5522,26,14,26z" fill="#FFFFFF"/></g></g><g id="Energy10"/><g id="Energy09"/><g id="Energy08"/><g id="Energy07"/><g id="Energy06"/><g id="Energy05"/><g id="Energy04"/><g id="Energy03"/><g id="Energy02"/><g id="Energy01"/></svg>